<svg xmlns="http://www.w3.org/2000/svg" enable-background="new 0 0 128 128" viewBox="0 0 128 128" id="smiling-face-with-hearts"><circle cx="64" cy="63" r="60" fill="#ffb480"></circle><path fill="#fff" d="M34.7 24.9c-.9 0-1.9-.4-2.5-1.3-.9-1.4-.6-3.2.7-4.2 9.1-6.4 19.9-9.8 31-9.8 1.7 0 3 1.3 3 3s-1.3 3-3 3c-9.9 0-19.5 3-27.6 8.7C35.9 24.7 35.3 24.9 34.7 24.9zM22.3 37.1c-.6 0-1.2-.2-1.7-.6-1.3-1-1.7-2.8-.7-4.2.5-.7 1-1.4 1.5-2 1-1.3 2.9-1.5 4.2-.5 1.3 1 1.5 2.9.5 4.2-.5.6-.9 1.2-1.4 1.8C24.2 36.7 23.3 37.1 22.3 37.1z"></path><path fill="#444b54" d="M102.6 46.3c-.6 0-1.2-.2-1.7-.5-5.7-3.9-12.9-5.2-19.6-3.6-1.6.4-3.2-.6-3.6-2.2-.4-1.6.6-3.2 2.2-3.6 8.4-2 17.2-.3 24.4 4.4 1.4.9 1.7 2.8.8 4.2C104.6 45.8 103.6 46.3 102.6 46.3zM64 103c-7.3 0-14.1-3.6-17.6-9.5-.9-1.4-.4-3.3 1-4.1 1.4-.9 3.3-.4 4.1 1C54 94.5 58.8 97 64 97c5.2 0 10-2.5 12.4-6.5.9-1.4 2.7-1.9 4.1-1 1.4.9 1.9 2.7 1 4.1C78.1 99.4 71.3 103 64 103zM25.4 46.3c-1 0-1.9-.5-2.5-1.3-.9-1.4-.6-3.2.8-4.2 7.1-4.8 16-6.4 24.4-4.4 1.6.4 2.6 2 2.2 3.6-.4 1.6-2 2.6-3.6 2.2-6.7-1.6-13.9-.3-19.6 3.6C26.5 46.1 25.9 46.3 25.4 46.3zM34.4 67.4c-1 0-1.9-.5-2.5-1.3-.9-1.4-.6-3.2.8-4.2 6-4 13.4-5.3 20.4-3.7 1.6.4 2.6 2 2.2 3.6-.4 1.6-2 2.6-3.6 2.2-5.4-1.3-11.1-.2-15.6 2.9C35.5 67.3 34.9 67.4 34.4 67.4zM93.6 67.4c-.6 0-1.2-.2-1.7-.5-4.6-3.1-10.3-4.1-15.6-2.9-1.6.4-3.2-.6-3.6-2.2-.4-1.6.6-3.2 2.2-3.6 7-1.6 14.4-.3 20.4 3.7 1.4.9 1.7 2.8.8 4.2C95.5 67 94.6 67.4 93.6 67.4z"></path><path fill="#fe4365" d="M123.4 90.7L123.4 90.7c-4.9-4.9-12.8-4.9-17.7 0-4.9-4.9-12.8-4.9-17.7 0h0c-4.9 4.9-4.6 12.6 0 17.7 3.1 3.5 12.1 10.3 15.9 13.2 1.1.8 2.5.8 3.6 0 3.9-2.9 12.8-9.8 15.9-13.2C128 103.2 128.3 95.6 123.4 90.7zM123.4 4.7L123.4 4.7c-4.9-4.9-12.8-4.9-17.7 0-4.9-4.9-12.8-4.9-17.7 0h0c-4.9 4.9-4.6 12.6 0 17.7 3.1 3.5 12.1 10.3 15.9 13.2 1.1.8 2.5.8 3.6 0 3.9-2.9 12.8-9.8 15.9-13.2C128 17.2 128.3 9.6 123.4 4.7zM40 79.7L40 79.7c-4.9-4.9-12.8-4.9-17.7 0-4.9-4.9-12.8-4.9-17.7 0h0c-4.9 4.9-4.6 12.6 0 17.7 3.1 3.5 12.1 10.3 15.9 13.2 1.1.8 2.5.8 3.6 0 3.9-2.9 12.8-9.8 15.9-13.2C44.6 92.2 44.9 84.6 40 79.7z"></path></svg>