<svg xmlns="http://www.w3.org/2000/svg" enable-background="new 0 0 128 128" viewBox="0 0 128 128" id="smiling-face-with-smiling-eyes"><rect width="1689" height="1793" x="-1247" y="-1473" fill="#d6d5bd" display="none"></rect><circle cx="64" cy="63" r="60" fill="#ffb480"></circle><circle cx="24" cy="74" r="10" fill="#ff8b80"></circle><circle cx="104" cy="74" r="10" fill="#ff8b80"></circle><path fill="#fff" d="M34.7 24.9c-.9 0-1.9-.4-2.5-1.3-.9-1.4-.6-3.2.7-4.2 9.1-6.4 19.9-9.8 31-9.8 1.7 0 3 1.3 3 3s-1.3 3-3 3c-9.9 0-19.5 3-27.6 8.7C35.9 24.7 35.3 24.9 34.7 24.9zM22.3 37.1c-.6 0-1.2-.2-1.7-.6-1.3-1-1.7-2.8-.7-4.2.5-.7 1-1.4 1.5-2 1-1.3 2.9-1.5 4.2-.5 1.3 1 1.5 2.9.5 4.2-.5.6-.9 1.2-1.4 1.8C24.2 36.7 23.2 37.1 22.3 37.1z"></path><path fill="#444b54" d="M64 97.3c-11.3 0-21.8-4.3-27.3-11.1-1-1.3-.8-3.2.5-4.2 1.3-1 3.2-.8 4.2.5 4.4 5.5 13.1 8.9 22.7 8.9s18.3-3.4 22.7-8.9c1-1.3 2.9-1.5 4.2-.5 1.3 1 1.5 2.9.5 4.2C85.8 93 75.3 97.3 64 97.3zM53 55c-1.7 0-3-1.3-3-3 0-5.3-2.6-9-5-9s-5 3.7-5 9c0 1.7-1.3 3-3 3s-3-1.3-3-3c0-8.4 4.8-15 11-15s11 6.6 11 15C56 53.7 54.7 55 53 55zM91 55c-1.7 0-3-1.3-3-3 0-5.3-2.6-9-5-9s-5 3.7-5 9c0 1.7-1.3 3-3 3s-3-1.3-3-3c0-8.4 4.8-15 11-15s11 6.6 11 15C94 53.7 92.7 55 91 55z"></path></svg>